<?xml version="1.0" encoding="UTF-8"?>
<svg id="Layer_1" data-name="Layer 1" xmlns="http://www.w3.org/2000/svg" width="11.11in" height="7.39in" viewBox="0 0 800 532">
  <defs>
    <style>
      .cls-1 {
        fill: #59331d;
      }
    </style>
  </defs>
  <g>
    <g>
      <path class="cls-1" d="M588.58,293.85v33h-37c-.23-6.48.3-13.05.04-19.54-1.7-42.44-7.63-107.66,20.99-141.93,62.41-74.73,183.35-15.01,162.31,81.31-12.73,58.29-86.24,93.82-136.25,55.58-3.48-2.66-5.8-6.85-10.08-8.42ZM699.73,225.11c0-30.47-24.7-55.17-55.17-55.17s-55.17,24.7-55.17,55.17,24.7,55.17,55.17,55.17,55.17-24.7,55.17-55.17Z"/>
      <path class="cls-1" d="M446.36,313.62c-2.75,2.83-25.77,3.03-29.82,1.78-5.74-1.79-4.52-8.97-5.45-13.54-31.97,31.97-89.74,17.59-110.68-20.33-16.51-29.91-9.59-73.62-8.79-107.13.26-10.7-1.39-25.07-.09-35.09.45-3.48,3.25-5.86,6.61-6.39,4.41-.7,25-1.03,26.96,2.93,1.53,3.1.28,23.18.44,28.56.69,22.33-2.01,78.65,5.85,96.15,12.41,27.64,54.2,31.27,72.02,6.64,15.34-21.21,6.8-83.12,8.13-110.87.33-6.89,1.56-14.62,2.49-21.51,1.9-2.78,28.89-3.2,31.65.46.81,1.08,1.72,8.98,1.9,11.1,2.31,27.02,0,54.06-.04,80.94-.03,24.67,3.01,53.18,1.08,77.08-.26,3.18-.99,6.34-2.26,9.24Z"/>
      <rect class="cls-1" x="481.58" y="48.85" width="37" height="266"/>
    </g>
    <g>
      <path class="cls-1" d="M735.58,336.85v94h-444v-94h444ZM435.35,354.11c-32.81,4.81-34.94,54.37,0,59.48,51.31,7.51,49.64-66.76,0-59.48ZM551.58,412.85l-26.49-58c-4.91-4.43-8.52,6.96-10.37,10.64-5.67,11.33-17.19,33.2-20.68,44.32-.32,1.03-.66,1.92-.46,3.03,3.03-.18,10.47.62,12.74-1.25,2.03-1.68,5.11-13.61,7.92-14.58,5.02.39,14.56-2.02,17.81,1.87,2.64,3.17,3.71,10.07,5.53,13.97h14ZM346.58,355.85v57h12v-20c2.2-.17,3.68,2.09,4.97,3.53,4.3,4.82,7.83,11.16,11.53,16.47h14.5l-18-23.5c4.62-3.32,11.89-5.22,13.52-11.47,3.04-11.63-3.89-22.58-16.18-22.96-2.46-.08-4.45.95-6.8.98-5.18.05-10.37-.13-15.54-.05ZM575.69,395.94c1.19,25.73,43.2,23.33,38.83-4.53-2.11-13.48-17.62-11.08-23.92-16.08-4.96-3.94-1.44-10.16,4.57-10.42,7.63-.33,8.2,7.45,9.87,7.71l9.12-3.73c-4.45-24.39-46.81-14.93-36.09,8.96,4.9,10.93,20.3,9.33,23.57,14.42,7.97,12.37-18.3,15.4-15.08-.43l-10.89,4.09ZM682.58,355.85h-43v10h16v47h12v-47h15v-10Z"/>
      <path class="cls-1" d="M587.58,439.85v38.5c0,.74-1.81,2.8-2.69,3.31-2.99,1.71-21.56,1.71-25.83,1.21-1.91-.22-3.62-.51-4.95-2.05-2.85-3.31-1.31-21.84-1.49-27.51-.14-4.26-1.89-8.86-1.04-13.46h36Z"/>
      <circle class="cls-1" cx="441.73" cy="383.83" r="19.57"/>
      <path class="cls-1" d="M359.73,378.71c-1.7-3.99-1.7-8.73,0-12.72,18.15-2.93,19.38,16.28,0,12.72Z"/>
    </g>
  </g>
  <g>
    <path class="cls-1" d="M231.59,293.87l1.04,2.44c35.52,19.57,51.16,60.64,34.43,98.51-24.98,56.54-105.27,72.46-153.78,36.85-9.8-7.19-26.42-26.08-27.64-38.43-.94-9.56,12.58-14.62,20.46-15.37,19.53-1.86,16.72,9.69,26.98,21,39.98,44.09,125.31-2,97.69-53.69-18.7-35-77.92-20.61-110.49-39.51-71.26-41.35-54.53-153.1,25.48-172.13,89.21-21.22,151.67,80.31,95.8,150.8-2.61,3.3-6.12,8.24-9.97,9.55ZM229.14,224.59c0-33.42-27.09-60.51-60.51-60.51s-60.51,27.09-60.51,60.51,27.09,60.51,60.51,60.51,60.51-27.09,60.51-60.51Z"/>
    <path class="cls-1" d="M70.58,199.85c-16.63-6.98-35.52-9.73-25.18-32.7,8.52-18.93,25.84-9.76,39.12-1.71l-13.94,34.4Z"/>
    <path class="cls-1" d="M153.58,176.86l-9.01,6.48c-10.55,8.3-16.57,24.76-11.48,37.51,8.4,21.05,46.31,3.57,48.55,26.46,3.45,35.21-33.47,29.15-50.07,10.07-23.09-26.52-15.31-73.28,22.02-80.51Z"/>
  </g>
</svg>